<svg xmlns="http://www.w3.org/2000/svg" xmlns:xlink="http://www.w3.org/1999/xlink" width="174" height="95" viewBox="0 0 174 95">
  <defs>
    <clipPath id="clip-iPhone_12_12_Pro_1">
      <rect width="174" height="95"/>
    </clipPath>
  </defs>
  <g id="iPhone_12_12_Pro_1" data-name="iPhone 12, 12 Pro – 1" clip-path="url(#clip-iPhone_12_12_Pro_1)">
    <g id="Group_1" data-name="Group 1" transform="translate(-70 -146)">
      <path id="Path_1" data-name="Path 1" d="M0,0H35V74H0Z" transform="translate(102 156)"/>
      <rect id="Rectangle_3" data-name="Rectangle 3" width="48" height="58" transform="translate(76 172)" fill="#343434"/>
      <rect id="Rectangle_2" data-name="Rectangle 2" width="26" height="32" transform="translate(76 156)" fill="#9b9b9b"/>
      <text id="C" transform="translate(93 223)" fill="#fff" font-size="65" font-family="MeiryoUI, Meiryo UI"><tspan x="0" y="0">C</tspan></text>
      <text id="o_or" data-name="o or" transform="translate(137 225)" fill="#030303" font-size="59" font-family="ArialUnicodeMS, Arial Unicode MS"><tspan x="0" y="0">o or</tspan></text>
    </g>
    <path id="brush-alt" d="M44.448,4.859a4.271,4.271,0,0,0-6.289-.154L11.271,31.123a7.213,7.213,0,0,0-2.891.614,7.072,7.072,0,0,0-2.964,3.456,12.971,12.971,0,0,1-3.253,4.147,2.429,2.429,0,0,0-.867,2.15,2.567,2.567,0,0,0,1.229,2c2.891,1.613,7.373,3.84,11.132,3.84a5.836,5.836,0,0,0,3.9-1.229,6.22,6.22,0,0,0,2.458-5.069v-.538L44.665,11.617A5.387,5.387,0,0,0,44.448,4.859ZM15.969,43.948c-1.879,1.459-6.433.461-12-2.688a15.665,15.665,0,0,0,3.614-4.685c.651-1.229,1.084-1.92,1.879-2.3a4.268,4.268,0,0,1,3.759.077c2.024,1.536,4.192,4.3,4.265,6.681A3.987,3.987,0,0,1,15.969,43.948ZM42.641,9.774,19.005,37.5A15.7,15.7,0,0,0,14.6,32.122h-.072l-.289-.154L39.895,6.7a1.863,1.863,0,0,1,2.747.077A2.339,2.339,0,0,1,42.641,9.774Z" transform="matrix(0.899, -0.438, 0.438, 0.899, 78.749, 41.715)"/>
  </g>
</svg>
